<svg xmlns="http://www.w3.org/2000/svg" width="13" height="21">
    <path fill-rule="evenodd" d="M12.063 20.999H.936c-.512 0-.929-.385-.929-.858V.859c0-.473.417-.858.929-.858h11.127c.512 0 .929.385.929.858v19.282c0 .473-.417.858-.929.858zm-.358-19.81H1.294v18.622h10.411V1.189zm-6.18 1.513h1.949c.356 0 .644.266.644.594 0 .328-.288.594-.644.594H5.525c-.356 0-.644-.266-.644-.594 0-.328.288-.594.644-.594zm.976 13.566h.001c.356 0 .644.267.644.595 0 .328-.288.594-.644.594-.355 0-.644-.266-.644-.594 0-.328.288-.595.643-.595z"/>
</svg>
