<svg id="Layer_1" data-name="Layer 1" xmlns="http://www.w3.org/2000/svg" viewBox="0 0 150 112.5"><defs><style>.cls-1{fill:#00556f;}</style></defs><title>menu</title><path class="cls-1" d="M6.25,27.84h137.5a6.25,6.25,0,0,0,0-12.5H6.25a6.25,6.25,0,0,0,0,12.5Z" transform="translate(0 -15.34)"/><path class="cls-1" d="M143.75,65.34H6.25a6.25,6.25,0,0,0,0,12.5h137.5a6.25,6.25,0,0,0,0-12.5Z" transform="translate(0 -15.34)"/><path class="cls-1" d="M143.75,115.34H6.25a6.25,6.25,0,0,0,0,12.5h137.5a6.25,6.25,0,0,0,0-12.5Z" transform="translate(0 -15.34)"/></svg>
